<svg xmlns="http://www.w3.org/2000/svg" viewBox="0 0 64 64">
  <defs>
    <linearGradient id="g" x1="12" y1="8" x2="54" y2="58" gradientUnits="userSpaceOnUse">
      <stop offset="0" stop-color="#2F7D5B"/>
      <stop offset="1" stop-color="#1F4E79"/>
    </linearGradient>
  </defs>
  <rect width="64" height="64" rx="18" fill="#F8FAF7"/>
  <path d="M18 23.5C18 16.6 24 11 31.6 11h.8C40 11 46 16.6 46 23.5S40 36 32.4 36h-5.1l-7.8 6.4c-.9.7-2.2.1-2.2-1V23.5H18Z" fill="url(#g)"/>
  <circle cx="25" cy="23.5" r="2.3" fill="#F8FAF7"/>
  <circle cx="32" cy="23.5" r="2.3" fill="#F8FAF7"/>
  <circle cx="39" cy="23.5" r="2.3" fill="#F8FAF7"/>
  <path d="M39.5 38.5c5.7 0 10.3 4.4 10.3 9.8 0 2.2-.8 4.2-2.1 5.8l2.1 4.1-4.7-1.7a11 11 0 0 1-5.6 1.5c-5.7 0-10.3-4.4-10.3-9.8s4.6-9.7 10.3-9.7Z" fill="#111827"/>
  <path d="M36.1 48.5h6.8M39.5 45.1v6.8" stroke="#F8FAF7" stroke-width="2.4" stroke-linecap="round"/>
</svg>
